<?xml version="1.0" encoding="UTF-8" standalone="no"?>
<!-- Created with Inkscape (http://www.inkscape.org/) -->

<svg xmlns:dc="http://purl.org/dc/elements/1.1/" xmlns:cc="http://creativecommons.org/ns#" xmlns:rdf="http://www.w3.org/1999/02/22-rdf-syntax-ns#" xmlns:svg="http://www.w3.org/2000/svg" xmlns="http://www.w3.org/2000/svg" xmlns:sodipodi="http://sodipodi.sourceforge.net/DTD/sodipodi-0.dtd" xmlns:inkscape="http://www.inkscape.org/namespaces/inkscape" width="200" height="200" viewBox="0 0 52.916665 52.916668" version="1.1" id="svg8" inkscape:version="0.92.5 (2060ec1f9f, 2020-04-08)" sodipodi:docname="pdf-embed-placeholder.svg">
  <defs id="defs2" />
  <sodipodi:namedview id="base" pagecolor="#ffffff" bordercolor="#666666" borderopacity="1.0" inkscape:pageopacity="0.0" inkscape:pageshadow="2" inkscape:zoom="1.979899" inkscape:cx="17.512627" inkscape:cy="73.319547" inkscape:document-units="mm" inkscape:current-layer="g10" showgrid="false" units="px" inkscape:window-width="1920" inkscape:window-height="1009" inkscape:window-x="0" inkscape:window-y="0" inkscape:window-maximized="1" />
  <metadata id="metadata5">
    <rdf:RDF>
      <cc:Work rdf:about="">
        <dc:format>image/svg+xml</dc:format>
        <dc:type rdf:resource="http://purl.org/dc/dcmitype/StillImage" />
        <dc:title></dc:title>
      </cc:Work>
    </rdf:RDF>
  </metadata>
  <g inkscape:label="Ebene 1" inkscape:groupmode="layer" id="layer1" transform="translate(0,-244.08332)">
    <g transform="matrix(1.157608,0,0,1.157608,-12.321535,232.39847)" id="g10" style="stroke-width:0.22856039">
      <path inkscape:connector-curvature="0" class="st2" d="m 49.9,20.9 c 0.4,0.4 0.8,1 1.1,1.8 0.3,0.7 0.5,1.4 0.5,2 v 26.9 c 0,0.6 -0.2,1.2 -0.7,1.6 -0.4,0.4 -1,0.7 -1.6,0.7 H 17.8 c -0.6,0 -1.2,-0.2 -1.6,-0.7 -0.4,-0.4 -0.7,-1 -0.7,-1.6 V 14.3 c 0,-0.6 0.2,-1.2 0.7,-1.6 0.4,-0.4 1,-0.7 1.6,-0.7 h 20.9 c 0.6,0 1.3,0.2 2,0.5 0.8,0.3 1.4,0.7 1.8,1.1 z M 48.5,27 h -9.7 c -0.6,0 -1.2,-0.2 -1.6,-0.7 -0.4,-0.4 -0.7,-1 -0.7,-1.6 V 15 h -18 V 50.9 H 48.4 V 27 Z m -10,11.3 c 0.9,-0.1 1.8,-0.2 2.7,-0.2 2.3,0 3.7,0.4 4.1,1.1 0.2,0.4 0.3,0.8 0,1.2 v 0 0 0 c -0.1,0.6 -0.6,0.9 -1.6,0.9 -0.8,0 -1.7,-0.1 -2.7,-0.4 -1,-0.3 -2,-0.7 -3,-1.2 -3.5,0.4 -6.5,1 -9.2,1.9 -2.4,4.1 -4.3,6.1 -5.7,6.1 -0.2,0 -0.4,-0.1 -0.7,-0.2 l -0.5,-0.3 c 0,0 -0.1,-0.1 -0.2,-0.1 -0.1,-0.2 -0.2,-0.4 -0.1,-0.8 0.1,-0.6 0.6,-1.3 1.3,-2.2 0.7,-0.8 1.8,-1.5 3.1,-2.2 0.2,-0.1 0.4,-0.1 0.5,0.2 0.1,0 0.1,0.1 0.1,0.1 0.8,-1.3 1.6,-2.9 2.5,-4.6 1.1,-2.1 1.9,-4.1 2.4,-6.1 -0.4,-1.3 -0.6,-2.5 -0.7,-3.8 -0.1,-1.2 -0.1,-2.2 0.1,-2.9 0.2,-0.6 0.5,-0.9 1,-0.9 h 0.5 c 0.4,0 0.6,0.1 0.8,0.3 0.3,0.3 0.3,0.9 0.2,1.6 0,0.1 -0.1,0.2 -0.1,0.2 0,0 0,0.1 0,0.2 V 27 c 0,1.9 -0.1,3.4 -0.3,4.5 0.9,2.6 2,4.4 3.4,5.6 0.6,0.3 1.3,0.8 2.1,1.2 z M 23,46.7 c 0.8,-0.4 1.9,-1.6 3.2,-3.7 -0.8,0.6 -1.5,1.3 -2,2 -0.5,0.7 -1,1.2 -1.2,1.7 z m 13.1,-8 c -0.1,0 -0.2,-0.1 -0.3,-0.2 -0.2,-0.1 -0.3,-0.2 -0.4,-0.3 -1.2,-1.1 -2.2,-2.4 -3,-4.1 -0.4,1.3 -1,2.9 -1.9,4.6 -0.5,0.9 -0.8,1.5 -1.1,1.9 2.1,-0.8 4.3,-1.5 6.7,-1.9 z M 32.3,28.2 c 0,-0.1 0.1,-0.4 0.2,-1 0,-0.1 0.1,-0.4 0.2,-1 0,-0.1 0.1,-0.1 0.1,-0.2 v 0 0 c 0,-0.4 -0.1,-0.6 -0.3,-0.9 0,0 0,0 0,0 v 0 c -0.4,0.7 -0.4,1.7 -0.2,3.1 z m 7.2,-13 V 24 h 8.8 C 48.1,23.5 48,23.2 47.8,23 l -7.3,-7.3 c -0.2,-0.2 -0.5,-0.3 -1,-0.5 z m 1.7,24.5 c 1.2,0.4 2.2,0.7 2.9,0.7 0.2,0 0.4,0 0.4,0 0,0 0,-0.1 -0.1,-0.1 -0.2,-0.5 -1.3,-0.6 -3.2,-0.6 z" id="path8" style="fill:#747474;fill-opacity:1;stroke:none;stroke-width:0.22856039;stroke-opacity:1" />
    </g>
  </g>
</svg>
